<svg height="385pt" viewBox="0 0 385.12 385" width="385pt" xmlns="http://www.w3.org/2000/svg"><path d="m340.121094 271.160156c13.015625-24.183594 19.878906-51.273437 19.878906-79.097656 0-13.183594-1.601562-26.28125-4.664062-39.085938 18.105468-16.570312 28.664062-40.082031 28.664062-64.914062 0-18.496094-5.761719-35.648438-15.542969-49.832031l10.855469-10.855469c6.246094-6.246094 6.246094-16.375 0-22.632812-6.25-6.238282-16.375-6.246094-22.625 0l-10.855469 10.855468c-14.183593-9.773437-31.335937-15.535156-49.832031-15.535156-24.832031 0-48.34375 10.570312-64.910156 28.671875-25.664063-6.121094-52.539063-6.113281-78.179688 0-16.566406-18.101563-40.078125-28.671875-64.910156-28.671875-18.496094 0-35.648438 5.761719-49.832031 15.542969l-10.855469-10.855469c-6.242188-6.246094-16.382812-6.246094-22.625 0-6.246094 6.25-6.246094 16.378906 0 22.625l10.855469 10.855469c-9.78125 14.183593-15.542969 31.335937-15.542969 49.832031 0 24.832031 10.566406 48.335938 28.671875 64.90625-3.070313 12.8125-4.671875 25.910156-4.671875 39.09375 0 28.097656 6.992188 55.449219 20.238281 79.855469l-30.199219 30.199219c-9.046874 9.058593-14.039062 21.113281-14.039062 33.945312s4.992188 24.886719 14.046875 33.953125c9.058594 9.054687 21.121094 14.046875 33.953125 14.046875s24.894531-4.992188 33.953125-14.046875l30.199219-30.199219c24.421875 13.261719 51.769531 20.246094 79.847656 20.246094 28.433594 0 56.046875-7.136719 80.617188-20.65625l30.589843 30.648438c9.378907 9.320312 21.664063 13.976562 33.945313 13.976562 12.296875 0 24.582031-4.671875 33.917968-14.007812 9.066407-9.054688 14.050782-21.113282 14.050782-33.953126 0-12.839843-4.984375-24.894531-14.050782-33.953124zm-44.121094-239.097656c15.398438 0 29.359375 6.25 39.496094 16.34375.03125.03125.046875.066406.078125.097656.035156.03125.066406.046875.089843.070313 10.089844 10.136719 16.335938 24.097656 16.335938 39.488281 0 10.90625-3.191406 21.417969-8.960938 30.351562-.277343-.574218-.625-1.117187-.910156-1.695312-1.527344-3.054688-3.152344-6.0625-4.855468-9.007812-.402344-.695313-.769532-1.40625-1.175782-2.089844-2.128906-3.550782-4.394531-7.007813-6.769531-10.375-.609375-.863282-1.257813-1.695313-1.878906-2.550782-1.90625-2.601562-3.882813-5.144531-5.9375-7.632812-.742188-.902344-1.480469-1.808594-2.238281-2.6875-5.425782-6.296875-11.296876-12.167969-17.59375-17.59375-.871094-.75-1.769532-1.476562-2.65625-2.214844-2.503907-2.070312-5.070313-4.0625-7.703126-5.992187-.824218-.605469-1.632812-1.222657-2.464843-1.816407-3.390625-2.390624-6.871094-4.671874-10.449219-6.816406-.621094-.375-1.277344-.710937-1.910156-1.078125-3.007813-1.753906-6.082032-3.398437-9.207032-4.96875-.554687-.28125-1.074218-.609375-1.625-.878906 8.921876-5.761719 19.433594-8.953125 30.335938-8.953125zm-177.648438 8.96875c-.574218.28125-1.113281.625-1.679687.902344-3.054687 1.53125-6.054687 3.144531-8.992187 4.847656-.703126.410156-1.421876.785156-2.128907 1.203125-3.535156 2.117187-6.976562 4.375-10.335937 6.734375-.902344.632812-1.773438 1.304688-2.664063 1.960938-2.550781 1.871093-5.046875 3.816406-7.488281 5.824218-.933594.773438-1.878906 1.542969-2.796875 2.335938-3.089844 2.664062-6.113281 5.398437-9 8.277344-.074219.074218-.144531.144531-.21875.21875-2.878906 2.886718-5.621094 5.910156-8.285156 9.007812-.785157.910156-1.546875 1.839844-2.3125 2.765625-2.023438 2.457031-3.976563 4.96875-5.863281 7.546875-.640626.871094-1.296876 1.71875-1.921876 2.605469-2.375 3.371093-4.640624 6.824219-6.769531 10.378906-.390625.664063-.75 1.351563-1.132812 2.015625-1.730469 2.984375-3.371094 6.023438-4.914063 9.117188-.28125.5625-.617187 1.082031-.886718 1.648437-5.769532-8.941406-8.960938-19.453125-8.960938-30.359375 0-15.390625 6.246094-29.351562 16.335938-39.488281.03125-.03125.0625-.046875.097656-.078125.03125-.03125.046875-.066406.078125-.097656 10.136719-10.085938 24.097656-16.335938 39.488281-16.335938 10.902344 0 21.414062 3.191406 30.351562 8.96875zm-59.023437 306.359375c-6.03125 6.023437-16.632813 6.015625-22.65625 0-3.007813-3.015625-4.671875-7.039063-4.671875-11.328125s1.664062-8.3125 4.671875-11.328125l25.753906-25.75c3.308594 4.023437 6.804688 7.855469 10.460938 11.535156.183593.183594.359375.375.546875.558594 3.710937 3.695313 7.582031 7.226563 11.636718 10.5625zm58.929687-41.105469c-16.347656-10.511718-29.96875-24.132812-40.515624-40.527344-14.222657-21.933593-21.742188-47.414062-21.742188-73.695312 0-13.632812 2.046875-27.167969 6.089844-40.246094 3.300781-10.730468 7.878906-20.875 13.550781-30.257812 17.015625-28.152344 43.917969-49.488282 76.121094-59.40625 13.070312-4.042969 26.605469-6.089844 40.238281-6.089844s27.167969 2.046875 40.246094 6.089844c16.089844 4.957031 30.859375 12.773437 43.738281 22.863281 21.457031 16.824219 37.65625 39.976563 45.925781 66.808594 4.042969 13.070312 6.089844 26.605469 6.089844 40.238281 0 26.066406-7.390625 51.3125-21.457031 73.144531-10.183594 16.136719-24.070313 30.183594-40.222657 40.6875-22.039062 14.503907-47.746093 22.167969-74.320312 22.167969-26.28125 0-51.761719-7.519531-73.742188-21.777344zm230.191407 41.105469c-6.234375 6.222656-16.410157 6.207031-22.640625.007813l-26.265625-26.320313c4.105469-3.421875 8.058593-7.046875 11.816406-10.855469.511719-.511718.945313-1.085937 1.449219-1.609375 3.199218-3.316406 6.335937-6.710937 9.238281-10.277343l26.402344 26.390624c3.015625 3.015626 4.671875 7.039063 4.671875 11.328126 0 4.289062-1.65625 8.320312-4.671875 11.335937zm0 0"/><path d="m304 192.0625c0-61.757812-50.238281-112-112-112s-112 50.242188-112 112c0 61.761719 50.238281 112 112 112s112-50.238281 112-112zm-112 80c-44.113281 0-80-35.886719-80-80s35.886719-80 80-80 80 35.886719 80 80-35.886719 80-80 80zm0 0"/><path d="m192 136.0625c-8.832031 0-16 7.167969-16 16v33.367188l-19.3125 19.320312c-6.246094 6.25-6.246094 16.378906 0 22.625 3.121094 3.128906 7.214844 4.6875 11.3125 4.6875s8.191406-1.558594 11.3125-4.6875l24-24c3-3 4.6875-7.070312 4.6875-11.3125v-40c0-8.832031-7.167969-16-16-16zm0 0"/></svg>